# xmcd CD database file
# Generated: Sat Jul 21 16:01:14 2001 by KSCD
# 
# Track frame offsets:
#       150
#       10032
#       31084
#       47704
#       64166
#       76897
#       92488
#       103189
#       115042
#       126877
#       143011
#       158502
#       177321
#       194102
#
# Disc length: 2829 seconds
#
# Revision: 2
# Processed by: cddbd v1.4b42PL0 Copyright (c) Steve Scherf et al.
# Submitted via: Kscd 1.3.0
#
DISCID=ae0b0b0e
DTITLE=Trio Forrozão - Agitando a Rapaziada
DYEAR=1900
DGENRE=Folk
TTITLE0=Agitando a Rapaziada
TTITLE1=Até mais ver
TTITLE2=Sou o Estopim
TTITLE3=Amor, amor é amar
TTITLE4=Xote Capixaba
TTITLE5=Pout Pourri - Xotes
TTITLE6=Pout Pourri
TTITLE7=Numa sala de reboco
TTITLE8=Zé Esteves
TTITLE9=Ela nem olhou pra mim
TTITLE10=Quando bate o coração
TTITLE11=Mata papai
TTITLE12=Quando os dois se quer
TTITLE13=Em plena lua de mel
EXTD=ID3G:  80
EXTT0=
EXTT1=
EXTT2=
EXTT3=
EXTT4=
EXTT5=
EXTT6=
EXTT7=
EXTT8=
EXTT9=
EXTT10=
EXTT11=
EXTT12=
EXTT13=
PLAYORDER=
